<?xml version="1.0" standalone="no"?>
<!DOCTYPE svg PUBLIC "-//W3C//DTD SVG 20010904//EN"
 "http://www.w3.org/TR/2001/REC-SVG-20010904/DTD/svg10.dtd">
<svg version="1.0" xmlns="http://www.w3.org/2000/svg"
 width="1024.000000pt" height="590.000000pt" viewBox="0 0 1024.000000 590.000000"
 preserveAspectRatio="xMidYMid meet">

<g transform="translate(0.000000,590.000000) scale(0.100000,-0.100000)"
fill="#000000" stroke="none">
<path d="M4379 5393 l-24 -28 28 24 c25 23 32 31 24 31 -2 0 -14 -12 -28 -27z"/>
<path d="M4250 5253 c-58 -58 -91 -95 -75 -82 33 27 191 189 184 189 -2 0 -52
-48 -109 -107z"/>
<path d="M3530 5270 c-9 -6 -10 -10 -3 -10 6 0 15 5 18 10 8 12 4 12 -15 0z"/>
<path d="M4328 5052 c-37 -25 -66 -48 -64 -50 4 -4 146 88 146 94 0 9 -19 -1
-82 -44z"/>
<path d="M6637 5080 c-49 -39 -56 -113 -30 -352 l6 -58 -59 0 c-70 0 -239 -22
-344 -45 -265 -56 -571 -210 -800 -400 -98 -82 -262 -252 -327 -339 -55 -75
-126 -194 -145 -244 -24 -62 25 -78 122 -41 113 44 288 35 430 -21 75 -30 96
-27 123 18 116 183 141 216 252 328 213 216 432 328 728 375 98 15 333 7 440
-16 327 -68 689 -312 906 -607 23 -32 40 -58 38 -58 -2 0 -39 34 -83 75 -85
81 -323 255 -443 325 -236 136 -424 200 -461 155 -15 -18 -11 -47 24 -180 41
-156 39 -152 105 -165 159 -30 298 -83 473 -181 170 -94 292 -192 512 -412
169 -169 202 -198 224 -195 47 5 50 41 12 175 -78 278 -213 548 -384 768 -145
187 -391 387 -610 497 -139 70 -207 95 -381 138 l-150 37 3 154 c4 184 -6 232
-57 266 -42 28 -90 29 -124 3z m102 -15 c22 -22 32 -102 30 -258 -1 -84 3
-153 8 -158 5 -5 61 -20 124 -33 335 -69 606 -216 861 -469 229 -227 396 -509
518 -877 85 -256 74 -264 -104 -75 -137 145 -293 284 -424 378 -154 111 -439
238 -599 268 -35 6 -69 17 -77 23 -8 6 -29 67 -46 136 -43 171 -43 164 4 168
82 7 291 -88 500 -228 248 -166 383 -288 529 -482 45 -59 83 -105 86 -102 8 8
-72 155 -138 253 -238 356 -601 610 -996 697 -121 26 -398 25 -525 -4 -252
-55 -468 -171 -645 -346 -102 -101 -184 -207 -240 -308 -20 -38 -42 -68 -49
-68 -6 0 -52 14 -101 31 -150 53 -309 52 -432 -3 -33 -14 -47 -16 -63 -8 -11
6 -20 14 -20 17 0 20 102 191 160 268 71 94 231 257 336 344 301 245 692 401
1059 420 l120 6 -4 187 -4 187 32 31 c26 26 37 31 59 25 15 -3 33 -12 41 -20z"/>
<path d="M6734 4780 c0 -91 2 -128 3 -82 2 45 2 119 0 165 -1 45 -3 8 -3 -83z"/>
<path d="M6037 4160 c-115 -74 -204 -149 -284 -240 -74 -85 -178 -228 -171
-235 2 -3 28 31 57 74 101 153 275 318 437 415 32 20 55 36 49 36 -5 0 -45
-22 -88 -50z"/>
<path d="M7105 4120 c27 -12 43 -12 25 0 -8 5 -22 9 -30 9 -10 0 -8 -3 5 -9z"/>
<path d="M5561 3643 c-10 -26 -10 -27 4 -9 8 11 15 23 15 28 0 15 -7 8 -19
-19z"/>
<path d="M3191 5027 c-13 -21 -12 -21 5 -5 10 10 16 20 13 22 -3 3 -11 -5 -18
-17z"/>
<path d="M4065 5001 c142 -166 120 -392 -51 -521 -198 -150 -469 -144 -652 14
-26 22 -38 30 -27 17 44 -52 138 -111 216 -136 137 -43 281 -28 409 41 89 49
145 106 187 191 34 69 35 75 31 155 -7 103 -31 159 -99 230 -38 39 -42 42 -14
9z"/>
<path d="M1591 4636 c-6 -7 -34 -16 -62 -19 -73 -9 -119 -35 -155 -88 -37 -56
-68 -151 -60 -184 4 -14 29 -42 56 -62 28 -21 50 -40 50 -44 0 -4 -19 -3 -42
2 -23 6 -54 7 -69 4 -99 -22 -155 -171 -93 -252 30 -40 88 -71 148 -79 39 -6
55 -1 135 40 106 54 188 75 301 77 111 2 81 20 -34 20 -103 1 -174 -18 -283
-77 -46 -24 -94 -44 -108 -44 -63 0 -157 69 -171 127 -10 39 15 104 53 140 40
38 91 44 163 18 24 -8 46 -13 49 -9 3 3 -27 36 -67 73 -82 77 -85 87 -51 176
39 104 102 151 194 143 32 -2 42 1 50 17 21 41 103 27 192 -32 63 -41 137
-139 190 -248 l39 -81 32 35 c28 30 36 33 71 28 58 -7 96 -40 131 -110 51
-106 50 -199 -4 -230 -11 -6 -57 -14 -101 -17 l-80 -5 3 -34 c2 -18 10 -52 18
-74 8 -22 14 -41 14 -43 0 -8 -82 -23 -160 -28 -47 -4 -107 -14 -135 -23 -58
-18 -139 -68 -174 -107 -14 -14 -30 -26 -37 -26 -26 0 -128 245 -117 278 3 7
18 19 35 28 16 8 28 18 25 20 -2 3 -21 -5 -41 -17 -24 -14 -36 -28 -36 -43 0
-54 97 -279 124 -289 9 -4 38 12 70 39 30 24 78 56 106 70 50 25 184 54 318
69 36 4 66 13 68 20 3 7 -2 39 -10 71 -8 32 -13 60 -11 63 3 2 28 8 56 12 29
5 73 19 98 31 38 19 48 30 55 60 12 50 -14 147 -57 211 -45 67 -99 92 -182 84
l-63 -6 -37 70 c-78 149 -223 259 -340 259 -32 0 -57 -5 -64 -14z"/>
<path d="M1491 4583 c0 -5 21 -25 45 -47 53 -46 74 -43 73 11 0 33 -1 35 -9
16 -9 -22 -30 -32 -30 -15 0 5 -16 16 -35 25 -40 19 -45 20 -44 10z"/>
<path d="M3132 4534 c-7 -8 -8 -14 -3 -14 10 0 25 19 20 25 -2 1 -10 -3 -17
-11z"/>
<path d="M3160 4350 c-41 -27 -72 -50 -68 -50 10 0 148 88 148 95 0 7 1 8 -80
-45z"/>
<path d="M1980 4245 c0 -16 39 -75 50 -75 5 0 10 7 10 16 0 8 -4 12 -10 9 -5
-3 -19 9 -30 27 -11 18 -20 29 -20 23z"/>
<path d="M3339 4223 l-24 -28 28 24 c25 23 32 31 24 31 -2 0 -14 -12 -28 -27z"/>
<path d="M3284 4158 l-29 -33 33 29 c30 28 37 36 29 36 -2 0 -16 -15 -33 -32z"/>
<path d="M3521 4163 c-10 -26 -10 -27 4 -9 8 11 15 23 15 28 0 15 -7 8 -19
-19z"/>
<path d="M3487 4095 c-9 -19 -15 -35 -12 -35 7 0 37 61 33 66 -3 2 -12 -12
-21 -31z"/>
<path d="M3210 4075 c-24 -25 -42 -45 -39 -45 3 0 25 20 49 45 24 25 42 45 39
45 -3 0 -25 -20 -49 -45z"/>
<path d="M3124 3978 l-19 -23 23 19 c12 11 22 21 22 23 0 8 -8 2 -26 -19z"/>
<path d="M2085 3700 c-177 -35 -316 -94 -432 -181 -29 -21 -61 -39 -71 -39
-11 0 -68 23 -128 51 -238 112 -362 148 -525 156 -146 6 -203 -3 -304 -52
-165 -79 -275 -269 -275 -476 0 -240 121 -378 340 -387 182 -8 330 64 448 218
78 102 56 149 -62 135 -69 -9 -90 3 -106 59 -26 93 19 132 150 129 117 -2 300
-38 300 -59 0 -4 -15 -35 -33 -68 -81 -146 -170 -369 -197 -493 -30 -133 -36
-305 -16 -442 46 -310 193 -506 440 -588 111 -36 281 -38 400 -5 221 63 380
202 481 420 16 34 32 62 36 62 4 0 5 8 3 18 -3 9 4 55 14 102 28 133 7 310
-51 425 -88 176 -219 253 -412 242 -171 -9 -293 -85 -363 -226 -42 -83 -43
-141 -6 -170 15 -12 39 -21 54 -21 14 0 51 -7 81 -16 69 -21 122 -74 144 -146
20 -67 20 -188 0 -236 -64 -152 -270 -167 -347 -25 -49 90 -68 190 -66 363 0
151 25 331 50 370 6 11 7 8 2 -10 -3 -14 -3 -21 2 -17 4 4 9 27 10 50 2 64 3
69 14 62 5 -3 7 0 4 8 -6 18 44 177 57 177 5 0 51 -14 102 -31 328 -108 525
-89 679 65 83 83 93 111 93 252 0 117 -1 122 -30 170 -55 88 -189 157 -330
168 -37 3 -94 -2 -150 -14z m213 -15 c34 -8 81 -24 103 -36 73 -37 159 -129
159 -169 0 -6 -5 -8 -11 -4 -8 4 -9 -3 -4 -26 8 -37 8 -140 0 -148 -2 -3 0
-11 6 -18 8 -10 2 -28 -25 -73 -87 -142 -225 -210 -407 -198 -69 4 -120 17
-252 61 -91 31 -172 56 -181 56 -18 0 -97 -234 -126 -375 -58 -281 -40 -516
50 -672 41 -71 94 -106 171 -111 74 -5 131 14 181 64 52 50 71 115 66 219 -8
162 -75 240 -227 269 -40 8 -78 19 -84 25 -17 17 -11 80 13 133 69 156 217
237 410 226 181 -11 307 -136 356 -354 23 -105 15 -290 -16 -389 -116 -366
-471 -583 -812 -496 -304 78 -469 321 -485 716 -11 246 29 403 183 723 35 73
64 142 64 153 0 28 -44 44 -172 63 -257 39 -345 6 -335 -123 3 -45 9 -59 32
-79 27 -22 33 -24 102 -17 61 6 74 4 79 -9 9 -24 -46 -116 -106 -177 -85 -86
-190 -128 -321 -129 -141 0 -243 59 -300 176 -30 61 -34 79 -37 168 -7 172 44
311 149 411 69 66 138 100 244 120 97 19 131 19 241 0 113 -20 228 -60 409
-141 154 -69 191 -76 221 -43 48 54 196 131 323 169 168 50 243 57 339 35z"/>
<path d="M2050 3456 c-74 -16 -152 -45 -180 -66 -50 -38 14 -78 164 -105 109
-19 157 -19 200 -1 86 36 103 135 29 174 -27 15 -141 14 -213 -2z m223 -37
c21 -26 21 -41 2 -80 -19 -37 -50 -49 -121 -49 -95 0 -254 44 -254 70 0 23 97
60 208 80 71 13 144 3 165 -21z"/>
<path d="M2416 2093 c-59 -142 -185 -273 -331 -343 -136 -65 -252 -81 -405
-55 -30 5 -32 4 -12 -5 13 -5 61 -13 106 -16 209 -16 430 86 562 259 45 61
108 181 102 197 -2 5 -12 -11 -22 -37z"/>
<path d="M6093 3664 c-58 -21 -106 -73 -162 -174 -46 -83 -48 -85 -83 -84 -20
1 -111 31 -202 68 -323 131 -469 146 -631 65 -231 -115 -167 -465 85 -470 36
-1 56 4 70 16 27 25 25 42 -10 82 -31 35 -39 78 -20 112 29 56 195 61 420 13
194 -42 250 -59 250 -78 0 -8 -15 -45 -34 -82 -80 -159 -140 -337 -181 -531
-15 -72 -31 -121 -42 -132 -28 -26 -148 -65 -245 -79 -75 -10 -91 -10 -120 4
-36 17 -65 54 -51 66 4 4 26 13 48 20 80 25 187 84 234 129 68 64 93 119 99
211 3 67 1 79 -20 110 -37 54 -98 83 -188 88 -136 8 -247 -33 -360 -134 -117
-104 -178 -186 -251 -339 -37 -78 -74 -147 -82 -154 -9 -7 -26 -11 -39 -9 -23
3 -23 5 -22 118 1 97 7 138 38 260 20 80 55 198 76 263 22 65 40 127 40 138 0
37 -38 42 -152 20 -135 -25 -178 -47 -206 -103 -12 -24 -62 -169 -112 -323
-91 -280 -119 -348 -153 -369 -27 -17 -35 6 -25 67 5 29 11 99 13 157 5 124
43 312 106 527 28 95 22 103 -75 102 l-71 -1 53 -8 c29 -4 55 -10 58 -13 3 -2
-15 -80 -40 -172 -82 -303 -120 -549 -98 -645 7 -30 12 -35 39 -38 47 -5 68
11 97 72 26 54 110 300 180 527 41 131 59 160 113 182 57 22 211 43 224 30 8
-8 3 -34 -19 -90 -72 -187 -129 -421 -138 -570 -9 -127 3 -153 67 -153 54 0
77 27 129 151 24 55 60 127 81 159 48 74 186 220 247 260 107 71 276 94 366
50 67 -32 81 -58 81 -150 0 -132 -62 -219 -210 -293 -46 -23 -79 -33 -157 -51
-39 -9 -36 -40 6 -82 33 -33 37 -34 111 -34 87 0 192 21 282 57 70 28 75 36
98 158 33 173 111 397 197 569 22 43 36 82 31 86 -11 10 -94 36 -178 55 -172
39 -237 49 -350 49 -134 1 -177 -13 -203 -68 -18 -37 -7 -99 25 -136 30 -37
23 -50 -28 -50 -117 0 -213 101 -212 222 1 104 52 175 163 227 49 23 67 26
170 26 134 -1 180 -12 393 -99 142 -57 251 -91 266 -81 5 3 31 44 58 92 82
148 130 183 249 183 35 0 59 -6 73 -17 20 -17 20 -20 6 -47 -34 -65 -115 -255
-115 -270 0 -31 48 -38 225 -33 170 6 277 18 326 38 18 7 32 25 44 56 24 61
67 108 118 127 23 9 116 32 207 51 342 72 382 79 399 68 43 -27 17 -38 -218
-90 -229 -51 -278 -70 -254 -94 12 -12 26 -10 294 48 165 36 199 37 199 9 0
-18 -22 -25 -240 -71 -230 -49 -240 -52 -240 -75 0 -13 7 -20 19 -20 17 0 289
55 397 81 58 13 87 7 82 -18 -2 -13 -49 -27 -213 -65 -115 -26 -222 -48 -237
-48 -27 0 -46 -29 -33 -50 10 -16 26 -13 243 36 206 46 257 51 257 25 0 -17
-49 -31 -338 -96 -109 -25 -218 -45 -242 -45 -53 0 -127 24 -167 53 -27 20
-32 20 -116 9 -127 -18 -342 -32 -460 -31 -57 1 -105 -1 -108 -3 -2 -3 -22
-49 -44 -102 -98 -239 -147 -431 -152 -589 -3 -101 8 -121 68 -121 49 0 78 34
129 149 113 259 262 400 463 440 72 15 96 15 180 5 179 -22 186 -22 242 -6 56
17 120 21 120 9 0 -5 -16 -49 -35 -99 -63 -169 -115 -425 -100 -495 17 -78
115 -66 160 21 7 14 34 90 60 170 57 176 101 273 144 322 44 50 127 81 203 76
90 -7 93 -14 48 -113 -21 -46 -36 -86 -33 -88 2 -3 50 17 106 44 141 67 208
83 327 75 96 -6 162 -21 219 -50 40 -21 40 -39 -3 -174 -101 -313 -103 -402
-11 -402 49 0 70 25 124 148 85 194 138 264 257 342 218 142 481 122 584 -45
l22 -35 96 0 c158 0 299 -41 399 -117 131 -98 199 -246 191 -414 -4 -79 -8
-97 -46 -172 -72 -145 -193 -251 -377 -330 -321 -139 -719 -160 -1595 -87
-129 11 -359 29 -510 40 -963 69 -860 65 -1555 65 -993 -1 -1408 -33 -2220
-176 -93 -16 -224 -39 -290 -50 -198 -34 -212 -38 -219 -62 -3 -12 -6 -70 -6
-128 l0 -107 -47 -20 c-27 -11 -109 -41 -183 -67 -74 -25 -158 -55 -187 -65
-70 -26 -312 -95 -403 -115 -41 -9 -93 -21 -115 -26 -22 -5 -106 -14 -186 -21
-263 -21 -519 12 -814 106 -149 48 -190 54 -78 13 184 -69 354 -110 548 -132
291 -33 514 -8 882 100 181 54 508 167 565 196 l38 19 0 114 c0 87 4 118 14
129 8 8 43 20 78 26 557 100 1038 172 1333 200 441 42 1399 64 1830 42 473
-24 1135 -70 1545 -106 367 -32 458 -37 755 -37 262 0 329 3 435 20 268 43
447 109 598 221 198 147 289 336 253 523 -40 202 -197 356 -421 412 -36 9
-112 19 -168 23 l-104 6 -49 52 c-72 76 -147 108 -269 113 -77 3 -109 0 -164
-17 -203 -63 -324 -181 -428 -417 -51 -115 -81 -153 -113 -140 -39 15 -32 70
44 326 60 203 60 208 -22 245 -71 33 -140 45 -256 45 -105 0 -184 -16 -270
-56 -30 -13 -56 -23 -57 -21 -2 2 6 26 18 54 11 28 18 58 15 67 -10 25 -51 36
-138 36 -96 0 -153 -23 -205 -83 -46 -55 -70 -109 -143 -322 -65 -189 -88
-228 -131 -223 -21 3 -25 9 -28 39 -3 39 30 248 47 292 6 15 9 27 7 27 -5 0
13 57 53 169 44 124 24 144 -110 108 -56 -14 -91 -17 -144 -13 -198 18 -270
18 -335 2 -104 -27 -168 -64 -256 -151 -86 -85 -135 -161 -199 -305 -43 -99
-74 -133 -108 -121 -17 6 -23 17 -25 48 -7 92 51 354 117 528 54 145 65 169
81 185 15 15 45 18 221 23 112 3 243 11 291 18 l87 12 61 -32 c109 -58 195
-52 554 37 197 49 223 62 200 100 -17 26 -52 26 -171 -2 -235 -54 -291 -66
-314 -65 -22 0 -23 1 -4 9 17 7 207 50 409 93 70 14 89 36 62 66 -26 28 -51
27 -237 -14 -168 -37 -258 -52 -248 -42 5 6 223 56 389 89 65 13 80 23 80 53
0 40 -39 47 -138 25 -300 -66 -352 -76 -352 -70 0 4 10 10 23 12 225 49 444
102 454 110 16 13 17 40 1 56 -7 7 -31 12 -54 12 -47 0 -552 -105 -598 -124
-53 -22 -93 -64 -117 -121 -18 -43 -29 -57 -53 -65 -56 -18 -179 -29 -329 -30
-117 0 -149 3 -153 14 -6 15 27 98 82 210 19 37 34 77 34 87 0 46 -145 73
-227 43z"/>
<path d="M6216 3574 c-35 -76 -32 -83 5 -10 17 32 28 60 26 63 -3 2 -17 -21
-31 -53z"/>
<path d="M3958 3223 c6 -2 18 -2 25 0 6 3 1 5 -13 5 -14 0 -19 -2 -12 -5z"/>
<path d="M3918 3203 c-9 -10 -22 -31 -30 -48 -21 -43 -129 -365 -176 -525 -74
-250 -107 -313 -156 -294 -18 7 -18 17 -12 132 8 158 20 244 48 355 31 125 34
123 -167 108 -170 -13 -344 -40 -413 -65 -223 -80 -391 -279 -421 -498 -25
-183 52 -362 180 -418 100 -43 224 -19 333 65 l47 35 32 -24 c62 -47 126 -68
197 -64 82 5 143 34 220 105 l59 54 42 -46 c64 -69 109 -89 199 -90 86 0 157
28 224 90 l39 35 38 -34 c68 -62 93 -71 204 -71 125 0 167 18 273 119 68 65
75 69 85 51 37 -68 139 -127 251 -145 136 -21 320 30 455 128 48 35 61 39 61
20 0 -7 15 -33 34 -58 47 -64 111 -94 201 -94 87 0 150 27 245 108 69 59 80
65 80 41 0 -26 103 -121 153 -140 95 -36 204 -6 297 81 45 42 70 55 70 35 0
-19 53 -72 91 -91 21 -11 64 -27 96 -35 93 -24 195 4 289 80 l40 33 45 -47
c83 -88 182 -104 234 -38 15 18 57 92 96 166 175 338 303 509 374 499 28 -4
23 -23 -45 -168 -32 -69 -68 -147 -80 -175 -107 -244 -71 -372 118 -420 112
-29 260 5 379 85 l58 38 32 -46 c35 -48 105 -104 163 -128 19 -9 71 -18 115
-21 322 -23 668 288 666 600 l0 67 52 0 c68 0 157 -24 213 -56 167 -98 200
-366 69 -546 -84 -115 -279 -211 -515 -255 -116 -21 -482 -24 -720 -4 -414 33
-765 65 -1070 96 -749 76 -1184 98 -1940 98 -762 0 -1053 -17 -1645 -99 -687
-95 -1080 -190 -1955 -473 -370 -120 -535 -172 -715 -226 -143 -43 -165 -56
-165 -93 0 -54 16 -62 260 -136 255 -77 438 -101 704 -93 216 6 328 26 599
103 251 72 634 210 655 237 5 7 12 60 14 118 3 59 8 111 12 117 3 5 36 15 73
21 38 7 138 25 223 40 664 122 1133 175 1775 200 192 8 195 8 65 9 -220 3
-650 -24 -940 -59 -333 -39 -1226 -181 -1242 -197 -4 -4 -9 -61 -10 -127 l-3
-120 -85 -36 c-275 -118 -746 -256 -970 -285 -134 -18 -375 -15 -515 6 -149
22 -483 114 -566 156 -61 31 -43 76 38 99 32 8 99 28 148 44 50 16 146 45 215
66 152 46 476 150 545 175 81 29 679 207 810 240 153 39 402 96 480 109 33 6
101 17 150 25 163 28 567 84 720 101 83 8 188 20 235 25 273 30 860 42 1445
30 701 -14 1102 -40 1775 -115 300 -33 908 -80 1180 -91 186 -8 353 5 495 38
99 23 248 80 310 120 158 100 233 241 223 416 -11 193 -133 316 -337 341 -36
4 -82 6 -101 4 l-35 -5 -1 -91 c-1 -103 -20 -165 -82 -271 -146 -249 -484
-377 -688 -261 -45 26 -118 102 -136 140 -6 14 -15 25 -20 25 -5 0 -32 -18
-61 -40 -178 -133 -428 -138 -513 -10 -25 37 -26 46 -21 117 5 84 33 162 129
362 77 163 80 169 69 190 -26 48 -101 22 -178 -63 -79 -86 -151 -201 -259
-411 -53 -104 -104 -196 -112 -202 -9 -7 -34 -13 -55 -13 -48 0 -116 46 -144
98 -10 17 -24 32 -31 32 -7 0 -34 -18 -60 -39 -68 -56 -127 -83 -198 -89 -112
-9 -223 51 -258 139 l-17 42 -65 -71 c-97 -106 -194 -136 -294 -91 -58 26 -96
63 -126 122 -13 26 -28 47 -32 47 -4 0 -39 -29 -79 -63 -106 -92 -161 -120
-242 -120 -43 -1 -77 5 -98 16 -46 24 -100 83 -113 123 -7 19 -17 34 -24 34
-7 0 -38 -18 -69 -40 -68 -49 -166 -96 -239 -116 -73 -19 -212 -18 -274 2 -72
24 -163 99 -179 147 -4 9 -9 17 -13 17 -4 0 -44 -36 -90 -79 -103 -99 -163
-131 -247 -131 -89 0 -148 23 -206 82 l-50 50 -53 -50 c-76 -72 -127 -96 -206
-95 -95 0 -159 38 -213 126 -10 15 -21 27 -25 27 -5 0 -40 -30 -78 -66 -142
-135 -239 -147 -387 -49 l-55 36 -63 -47 c-86 -63 -134 -84 -196 -84 -155 0
-261 122 -271 314 -9 172 47 315 170 437 141 140 311 196 651 215 81 4 127 3
127 -3 0 -5 -9 -45 -20 -89 -32 -120 -50 -258 -50 -371 0 -90 3 -106 20 -123
48 -48 114 -6 154 98 14 37 53 159 87 272 95 320 148 472 176 502 9 10 14 18
11 18 -3 0 -12 -8 -20 -17z"/>
<path d="M4101 3159 c-7 -22 -11 -43 -8 -45 2 -2 9 14 16 37 7 22 11 43 8 45
-2 2 -9 -14 -16 -37z"/>
<path d="M4619 3134 c-21 -56 -77 -239 -83 -274 -3 -19 4 -6 15 30 11 36 36
109 55 163 20 54 33 101 30 104 -3 3 -10 -7 -17 -23z"/>
<path d="M4071 3054 c0 -11 3 -14 6 -6 3 7 2 16 -1 19 -3 4 -6 -2 -5 -13z"/>
<path d="M4032 2904 c-12 -50 -22 -98 -21 -105 0 -8 12 29 25 81 13 52 22 100
20 105 -1 6 -13 -31 -24 -81z"/>
<path d="M5949 2923 c-18 -46 -69 -246 -69 -268 1 -11 16 39 34 110 19 72 39
142 45 158 6 15 8 27 6 27 -3 0 -10 -12 -16 -27z"/>
<path d="M7044 2914 c-8 -20 -13 -38 -11 -40 2 -2 11 14 20 36 19 50 12 53 -9
4z"/>
<path d="M3511 2865 c-6 -22 -11 -49 -10 -60 0 -11 7 3 15 30 7 28 12 55 10
60 -2 6 -8 -8 -15 -30z"/>
<path d="M7016 2845 c-3 -9 -6 -22 -5 -28 0 -7 5 -1 10 12 5 13 8 26 5 28 -2
2 -6 -3 -10 -12z"/>
<path d="M5173 2820 c-48 -29 -94 -108 -117 -202 -5 -24 -3 -28 15 -28 44 0
142 44 186 84 39 35 46 48 50 90 5 40 3 52 -12 63 -27 19 -85 16 -122 -7z
m105 -12 c25 -25 10 -96 -27 -126 -28 -22 -85 -49 -118 -57 l-32 -6 13 43 c22
71 46 112 79 136 35 24 67 28 85 10z"/>
<path d="M6579 2810 c-79 -42 -140 -145 -165 -280 -25 -131 -9 -180 61 -180
59 0 97 47 155 195 17 44 49 115 71 157 21 43 39 84 39 92 0 38 -100 48 -161
16z m135 -19 c6 -9 -6 -43 -60 -160 -19 -40 -48 -106 -65 -147 -40 -96 -92
-137 -127 -102 -14 14 -17 122 -3 114 5 -4 7 3 4 14 -8 29 32 147 67 203 16
26 44 56 62 67 34 20 112 28 122 11z"/>
<path d="M4505 2745 c-10 -42 -15 -78 -13 -80 3 -3 12 30 21 72 9 42 15 78 13
81 -2 2 -12 -31 -21 -73z"/>
<path d="M6992 2761 c-7 -21 -12 -45 -11 -52 0 -8 7 8 15 35 9 26 13 50 11 52
-2 2 -9 -13 -15 -35z"/>
<path d="M3491 2764 c0 -11 3 -14 6 -6 3 7 2 16 -1 19 -3 4 -6 -2 -5 -13z"/>
<path d="M4002 2760 c0 -14 2 -19 5 -12 2 6 2 18 0 25 -3 6 -5 1 -5 -13z"/>
<path d="M3136 2743 c-65 -17 -154 -105 -194 -191 -50 -110 -38 -263 24 -291
74 -33 124 6 160 127 36 122 78 251 95 290 13 32 13 35 -10 53 -23 19 -38 21
-75 12z m62 -46 c3 -15 -57 -219 -105 -355 -26 -75 -99 -90 -123 -26 -14 37
-12 96 5 118 8 11 15 27 15 36 0 9 7 31 16 49 9 17 13 39 10 47 -8 21 15 62
56 101 54 52 119 68 126 30z"/>
<path d="M3475 2675 c-4 -31 -5 -58 -3 -61 3 -2 8 21 12 52 4 31 5 59 2 61 -2
3 -8 -21 -11 -52z"/>
<path d="M3981 2642 c-6 -49 -10 -122 -9 -163 2 -71 2 -71 5 -14 1 33 8 104
14 158 13 124 6 139 -10 19z"/>
<path d="M8778 2690 c-36 -11 -98 -49 -98 -61 0 -14 17 -11 58 10 55 28 127
34 192 17 60 -16 69 -14 50 9 -25 31 -137 45 -202 25z"/>
<path d="M6971 2674 c0 -11 3 -14 6 -6 3 7 2 16 -1 19 -3 4 -6 -2 -5 -13z"/>
<path d="M4482 2630 c0 -14 2 -19 5 -12 2 6 2 18 0 25 -3 6 -5 1 -5 -13z"/>
<path d="M6961 2634 c0 -11 3 -14 6 -6 3 7 2 16 -1 19 -3 4 -6 -2 -5 -13z"/>
<path d="M5873 2595 c0 -22 2 -30 4 -17 2 12 2 30 0 40 -3 9 -5 -1 -4 -23z"/>
<path d="M6951 2594 c0 -11 3 -14 6 -6 3 7 2 16 -1 19 -3 4 -6 -2 -5 -13z"/>
<path d="M3463 2535 c0 -27 2 -38 4 -22 2 15 2 37 0 50 -2 12 -4 0 -4 -28z"/>
<path d="M8765 2565 c-83 -22 -135 -110 -135 -228 0 -116 65 -160 183 -125
111 33 240 238 198 316 -21 39 -160 60 -246 37z m211 -40 c65 -43 -23 -226
-138 -286 -47 -24 -120 -25 -139 -2 -22 26 -18 188 6 237 27 57 79 78 173 72
43 -3 83 -11 98 -21z"/>
<path d="M4473 2510 c0 -30 2 -43 4 -27 2 15 2 39 0 55 -2 15 -4 2 -4 -28z"/>
<path d="M5863 2485 c0 -33 2 -45 4 -27 2 18 2 45 0 60 -2 15 -4 0 -4 -33z"/>
<path d="M6932 2435 c0 -16 2 -22 5 -12 2 9 2 23 0 30 -3 6 -5 -1 -5 -18z"/>
<path d="M4579 2113 c-13 -16 -12 -17 4 -4 9 7 17 15 17 17 0 8 -8 3 -21 -13z"/>
<path d="M4536 2085 c-11 -8 -15 -15 -9 -15 6 0 16 7 23 15 16 19 11 19 -14 0z"/>
<path d="M9654 1698 l-19 -23 25 20 c14 11 27 21 29 22 2 2 0 3 -6 3 -5 0 -18
-10 -29 -22z"/>
<path d="M9500 1610 c-9 -6 -10 -10 -3 -10 6 0 15 5 18 10 8 12 4 12 -15 0z"/>
<path d="M5810 1451 c-13 -26 -6 -247 9 -288 29 -75 187 -99 264 -40 46 35 57
74 57 208 0 116 -6 129 -56 129 -55 0 -64 -18 -64 -135 0 -124 -3 -135 -41
-135 -41 0 -49 24 -49 147 0 72 -4 113 -12 121 -7 7 -31 12 -55 12 -31 0 -45
-5 -53 -19z m76 1 c7 -4 13 -55 16 -131 5 -135 12 -151 68 -151 49 0 59 24 62
150 l3 115 38 3 37 3 0 -116 c0 -77 -5 -127 -14 -150 -35 -83 -188 -98 -250
-24 -25 30 -26 35 -26 170 l0 139 28 0 c15 0 32 -4 38 -8z"/>
<path d="M5414 1435 c-9 -15 -41 -89 -71 -167 -60 -158 -59 -168 13 -168 44 0
74 19 74 46 0 9 11 14 29 14 16 0 36 3 45 6 11 4 22 -5 37 -31 21 -35 23 -36
73 -33 42 2 51 6 54 23 3 26 -100 283 -126 312 -31 34 -105 33 -128 -2z m111
-17 c16 -24 115 -271 115 -288 0 -6 -17 -10 -38 -10 -34 0 -40 4 -53 33 -8 17
-17 31 -21 30 -5 -2 -32 -3 -62 -3 -50 0 -54 -2 -66 -30 -11 -26 -18 -30 -51
-30 -27 0 -39 4 -39 14 0 19 99 277 112 294 6 6 28 12 49 12 28 0 42 -6 54
-22z"/>
<path d="M5451 1309 c-7 -23 -15 -47 -18 -54 -3 -10 6 -14 37 -13 34 0 40 3
35 17 -4 9 -11 30 -16 48 -14 47 -24 48 -38 2z"/>
<path d="M6330 1444 c-12 -16 -12 -17 0 -6 17 15 107 16 181 2 70 -13 99 -44
99 -104 0 -36 -6 -49 -32 -75 l-31 -31 26 -54 c15 -30 27 -58 27 -61 0 -3 -19
-5 -42 -3 -41 3 -43 5 -64 57 -14 36 -29 57 -45 63 -38 14 -48 3 -51 -59 l-3
-58 -35 0 -35 0 -6 150 -5 150 0 -155 1 -155 55 0 55 0 3 58 c4 73 20 74 55 2
34 -69 87 -95 130 -62 14 11 14 17 -8 67 -23 53 -23 56 -5 75 42 47 52 103 26
154 -22 41 -60 54 -176 59 -94 4 -107 2 -120 -14z"/>
<path d="M5025 1443 c-96 -8 -145 -15 -145 -22 0 -4 33 -4 73 0 39 4 102 8
139 8 59 1 67 -1 73 -20 9 -28 -2 -37 -50 -41 l-40 -3 4 -136 3 -136 -33 -7
c-18 -3 -36 -3 -41 2 -4 4 -11 66 -15 137 l-8 130 -45 0 c-37 0 -46 4 -57 25
-9 17 -13 20 -13 8 0 -38 12 -48 55 -48 52 0 55 -6 56 -108 0 -42 3 -95 7
-117 7 -37 10 -40 44 -43 21 -2 47 2 59 8 21 12 22 15 15 141 l-7 129 35 0
c55 0 80 36 56 81 -11 19 -46 22 -165 12z"/>
<path d="M6916 1433 c-12 -3 -41 -52 -83 -140 -35 -75 -62 -137 -60 -140 3 -2
30 49 61 114 74 157 67 148 114 151 33 3 44 -1 56 -20 19 -29 105 -295 98
-303 -8 -8 -55 -6 -69 3 -6 4 -16 20 -22 35 -10 26 -14 27 -76 27 -60 0 -66
-2 -77 -25 -6 -14 -19 -25 -29 -25 -9 0 -24 -3 -33 -6 -11 -4 -19 1 -24 17 -6
16 -11 19 -17 10 -11 -20 15 -40 57 -43 39 -2 64 12 73 43 11 34 110 21 119
-16 6 -24 15 -29 77 -39 55 -9 63 8 40 80 -11 32 -31 98 -45 145 -14 48 -34
96 -43 108 -18 21 -81 34 -117 24z"/>
<path d="M4552 1398 c-113 -19 -161 -135 -82 -201 l28 -24 -26 -22 -27 -21 31
17 c35 19 64 12 64 -16 0 -22 33 -33 70 -24 88 21 53 83 -47 83 -57 0 -99 24
-113 64 -14 43 0 78 43 110 40 29 164 30 196 2 26 -24 27 -42 1 -56 -15 -8
-27 -7 -51 5 -38 20 -88 16 -103 -8 -16 -26 9 -41 93 -56 91 -16 116 -41 109
-106 -3 -25 -13 -54 -23 -65 -30 -33 -173 -53 -216 -29 -11 5 -29 25 -40 42
l-21 32 7 -30 c13 -61 73 -82 181 -65 82 13 100 22 124 63 50 82 0 153 -120
172 -46 7 -70 20 -70 37 0 10 37 7 106 -7 38 -8 74 9 74 34 0 49 -98 85 -188
69z m88 -238 c13 -9 12 -12 -5 -26 -26 -19 -54 -14 -73 14 -14 22 -14 22 24
22 22 0 46 -5 54 -10z"/>
<path d="M7311 1397 c-6 -8 -18 -81 -27 -162 -17 -169 -16 -173 54 -182 47 -6
50 -1 54 102 l3 60 39 -82 c43 -90 64 -107 132 -101 52 4 59 22 73 193 10 128
10 141 -6 153 -44 32 -107 4 -100 -43 l4 -30 2 33 c1 30 3 32 38 32 l36 0 -7
-145 c-4 -80 -9 -152 -12 -160 -9 -22 -50 -29 -83 -15 -23 9 -39 32 -78 116
-26 57 -51 104 -54 104 -4 0 -10 -45 -14 -100 l-7 -100 -33 0 c-19 0 -36 4
-40 9 -9 16 26 295 39 309 9 9 24 10 52 4 38 -8 40 -9 88 -119 27 -62 53 -110
58 -107 4 3 7 35 7 72 -1 54 -3 60 -9 32 -6 -30 -8 -32 -15 -15 -27 69 -54
123 -69 138 -21 21 -108 24 -125 4z"/>
<path d="M6406 1352 c-3 -25 -4 -47 -2 -50 3 -2 28 -5 56 -5 97 -2 95 78 -2
93 l-46 6 -6 -44z m107 -1 c17 -17 -5 -41 -39 -41 -31 0 -34 2 -34 31 0 30 1
31 32 25 18 -3 36 -10 41 -15z"/>
<path d="M7800 1349 c-20 -36 -5 -66 36 -74 l36 -6 -5 -87 -5 -87 12 90 c7 50
10 93 8 98 -2 4 -14 7 -27 7 -50 0 -68 23 -46 59 8 12 29 11 140 -4 l132 -18
-3 -26 c-3 -24 -7 -26 -55 -29 -32 -2 -53 -8 -54 -15 0 -7 -6 -64 -12 -127
-13 -123 -17 -130 -72 -116 -19 5 -25 14 -28 44 -4 32 -4 30 -3 -8 1 -43 2
-45 38 -54 28 -7 42 -6 61 7 22 14 25 24 31 119 9 137 11 141 47 134 44 -8 79
11 79 45 0 37 -18 46 -121 58 -133 17 -176 15 -189 -10z"/>
<path d="M4091 1344 c-111 -20 -105 -13 -98 -102 3 -42 11 -119 18 -170 15
-118 15 -118 156 -97 58 8 109 18 114 21 12 7 11 41 -2 65 -9 18 -17 19 -78
13 -63 -6 -68 -5 -73 14 -7 26 -1 32 31 32 34 0 71 26 71 50 0 23 -26 50 -48
50 -14 0 -13 -2 2 -13 11 -8 17 -23 14 -38 -2 -20 -10 -25 -45 -30 -54 -7 -57
-10 -49 -54 8 -38 10 -39 88 -26 55 9 65 5 69 -28 4 -23 0 -25 -66 -37 -85
-15 -152 -17 -159 -5 -12 19 -39 312 -30 321 5 5 56 15 113 22 88 10 104 10
112 -3 18 -29 -2 -42 -93 -54 -47 -6 -48 -7 -48 -40 0 -39 6 -45 40 -34 16 4
19 7 8 8 -27 2 -23 40 5 45 12 2 42 8 67 13 40 7 45 11 48 36 7 59 -26 67
-167 41z"/>
<path d="M6921 1281 c-11 -27 -21 -52 -21 -55 0 -6 71 2 78 8 4 5 -19 77 -29
89 -3 4 -16 -14 -28 -42z m35 -38 c-10 -10 -19 5 -10 18 6 11 8 11 12 0 2 -7
1 -15 -2 -18z"/>
<path d="M3608 1286 c-43 -6 -83 -17 -89 -23 -9 -9 -8 -41 1 -130 24 -232 21
-218 59 -221 19 -2 44 -1 57 2 22 6 24 12 24 66 0 33 4 60 8 60 4 0 21 -20 36
-45 16 -25 34 -50 41 -55 18 -15 95 -1 103 18 3 9 -6 37 -20 62 -25 45 -25 46
-7 69 13 16 19 39 19 76 0 110 -70 146 -232 121z m151 -20 c53 -28 69 -120 30
-170 l-21 -27 31 -50 c17 -28 31 -52 31 -54 0 -2 -14 -8 -31 -14 -38 -13 -47
-8 -86 55 -29 46 -49 59 -76 49 -12 -5 -14 -18 -10 -64 l6 -58 -33 -6 c-18 -4
-36 -5 -40 -2 -4 3 -11 38 -15 77 -3 40 -11 111 -17 156 -7 60 -7 87 1 95 25
25 188 34 230 13z"/>
<path d="M3619 1210 c-12 -7 -14 -19 -10 -52 5 -35 10 -44 29 -46 34 -5 82 18
92 42 4 12 3 31 -3 44 -8 18 -18 22 -51 22 -23 0 -48 -5 -57 -10z m89 -12 c17
-17 15 -55 -4 -62 -34 -13 -54 -6 -60 21 -10 40 36 69 64 41z"/>
</g>
</svg>
