<?xml version="1.0" standalone="no"?>
<!DOCTYPE svg PUBLIC "-//W3C//DTD SVG 20010904//EN"
 "http://www.w3.org/TR/2001/REC-SVG-20010904/DTD/svg10.dtd">
<svg version="1.0" xmlns="http://www.w3.org/2000/svg"
 width="1024.000000pt" height="590.000000pt" viewBox="0 0 1024.000000 590.000000"
 preserveAspectRatio="xMidYMid meet">
<metadata>
Created by potrace 1.16, written by Peter Selinger 2001-2019
</metadata>
<g transform="translate(0.000000,590.000000) scale(0.100000,-0.100000)"
fill="#000000" stroke="none">
<path d="M6637 5079 c-49 -37 -54 -100 -31 -345 l6 -61 -106 -7 c-112 -7 -294
-37 -386 -63 -100 -28 -304 -112 -392 -162 -230 -129 -487 -349 -627 -535 -84
-111 -173 -264 -169 -290 5 -32 32 -42 80 -28 146 42 164 44 258 40 72 -4 117
-13 186 -37 112 -38 129 -39 150 -3 10 15 50 77 90 137 289 436 763 646 1281
569 274 -40 577 -205 809 -440 74 -74 204 -234 191 -234 -2 0 -39 34 -83 75
-84 81 -323 256 -439 322 -243 140 -428 203 -465 158 -15 -18 -11 -47 28 -190
41 -150 34 -141 105 -155 152 -29 292 -83 467 -179 169 -93 293 -193 513 -413
210 -211 234 -227 259 -173 14 32 -4 111 -67 290 -138 391 -346 693 -638 925
-227 179 -414 271 -692 340 l-150 38 3 148 c4 184 -8 238 -57 271 -42 29 -90
29 -124 2z m93 -7 c31 -25 41 -92 39 -265 -1 -84 3 -153 8 -158 5 -5 61 -20
124 -33 218 -45 415 -126 589 -244 372 -251 622 -600 790 -1101 86 -257 74
-265 -103 -78 -228 242 -426 399 -632 501 -151 75 -271 121 -370 142 -120 25
-113 17 -141 152 -9 42 -22 96 -31 120 -17 53 -9 66 41 64 160 -6 616 -283
850 -517 59 -59 174 -196 239 -286 l18 -24 -7 25 c-17 68 -159 291 -261 410
-222 258 -548 456 -868 526 -121 26 -398 25 -525 -4 -252 -55 -468 -171 -645
-346 -102 -101 -184 -207 -240 -308 -20 -38 -42 -68 -49 -68 -6 0 -52 14 -101
31 -150 53 -309 52 -432 -3 -33 -14 -47 -16 -63 -8 -11 6 -20 14 -20 18 1 21
99 186 159 265 72 96 245 272 343 351 309 246 687 396 1053 415 l120 6 -4 181
c-3 162 -2 185 15 212 26 44 67 54 104 24z"/>
<path d="M4123 4910 c75 -150 31 -325 -109 -430 -184 -139 -430 -144 -624 -14
-16 11 -15 8 5 -9 42 -36 120 -73 190 -91 211 -55 458 45 556 226 32 59 34 69
34 158 0 84 -3 101 -27 146 -38 72 -60 85 -25 14z"/>
<path d="M1591 4636 c-6 -7 -34 -16 -62 -19 -70 -9 -119 -35 -151 -82 -35 -51
-72 -159 -64 -189 3 -13 28 -41 56 -62 27 -21 50 -41 50 -45 0 -3 -21 -2 -47
2 -78 15 -128 -12 -167 -88 -54 -107 21 -221 158 -239 39 -6 55 -1 135 40 105
54 185 75 299 78 108 3 81 18 -34 18 -109 0 -171 -17 -281 -76 -44 -24 -93
-44 -107 -44 -64 0 -158 69 -172 127 -10 39 15 104 53 140 40 38 91 44 163 18
24 -8 46 -13 49 -9 3 3 -27 36 -67 73 -82 77 -85 87 -51 176 39 104 102 151
194 143 32 -2 42 1 50 17 21 41 103 27 192 -32 63 -41 137 -139 190 -248 l39
-81 32 35 c28 30 36 33 71 28 58 -7 96 -40 131 -110 51 -106 50 -199 -4 -230
-11 -6 -57 -14 -101 -17 l-80 -5 3 -34 c2 -18 10 -52 18 -74 8 -22 14 -41 14
-43 0 -8 -82 -23 -160 -28 -47 -4 -107 -14 -135 -23 -58 -18 -139 -68 -174
-107 -14 -14 -30 -26 -37 -26 -25 0 -129 245 -117 276 3 8 18 21 34 30 16 8
29 17 29 19 0 3 -18 -4 -40 -15 -51 -26 -51 -42 -5 -162 41 -105 73 -165 91
-172 7 -3 38 15 68 40 103 83 179 110 389 135 59 7 101 17 104 24 2 7 -3 39
-11 71 -8 32 -13 60 -11 63 3 2 28 8 56 12 29 5 73 19 98 31 38 19 48 30 55
60 13 50 -17 157 -58 211 -55 71 -77 82 -167 82 l-80 0 -37 69 c-78 148 -220
256 -337 256 -32 0 -57 -5 -64 -14z"/>
<path d="M2090 3701 c-178 -34 -322 -95 -436 -182 -28 -21 -60 -39 -71 -39
-11 0 -67 22 -124 48 -122 57 -246 106 -344 135 -57 18 -97 21 -220 22 -133 0
-157 -3 -210 -23 -90 -35 -135 -64 -193 -126 -137 -145 -184 -423 -100 -589
91 -180 349 -232 570 -115 99 53 239 218 222 262 -10 26 -52 38 -110 30 -66
-8 -87 4 -103 56 -35 117 38 153 252 125 108 -14 173 -29 190 -45 4 -4 -19
-61 -51 -126 -83 -167 -151 -342 -175 -454 -25 -115 -29 -354 -8 -470 50 -278
203 -470 435 -547 110 -36 280 -38 400 -4 205 57 361 184 453 368 33 65 59
135 73 198 50 213 -3 457 -128 588 -147 154 -450 155 -606 3 -93 -90 -144
-237 -98 -279 9 -9 49 -22 89 -31 92 -19 127 -38 163 -88 41 -57 53 -108 48
-215 -4 -85 -6 -95 -34 -130 -45 -56 -98 -83 -163 -83 -109 0 -170 66 -211
227 -35 136 -25 398 21 576 5 21 13 36 17 33 4 -2 7 7 7 20 -2 44 61 244 76
244 5 0 59 -16 119 -36 206 -66 322 -79 449 -49 84 20 149 56 212 118 75 75
92 114 97 227 2 54 -1 113 -7 137 -17 62 -68 122 -136 159 -119 67 -223 82
-365 55z m208 -16 c134 -32 238 -115 267 -215 7 -24 7 -24 -9 -5 -14 19 -15
18 -10 -20 3 -22 7 -47 8 -57 2 -9 0 -34 -4 -57 -4 -23 -3 -44 3 -50 13 -13
-53 -119 -103 -164 -85 -78 -198 -113 -330 -103 -92 6 -159 24 -314 80 -54 20
-107 36 -117 36 -14 0 -27 -28 -63 -138 -131 -401 -132 -738 -3 -929 101 -149
335 -114 393 59 12 39 15 72 11 136 -10 161 -75 237 -226 266 -40 8 -78 19
-84 25 -17 17 -11 80 13 133 69 156 217 237 410 226 178 -10 292 -119 351
-335 29 -104 23 -300 -11 -408 -117 -367 -475 -585 -816 -496 -299 77 -463
319 -481 706 -11 258 26 406 184 734 35 73 63 143 61 154 -4 26 -54 44 -178
62 -247 38 -337 4 -327 -124 3 -45 9 -59 32 -79 27 -22 33 -24 102 -17 61 6
74 4 79 -9 9 -24 -46 -116 -106 -177 -85 -86 -190 -128 -321 -129 -141 0 -243
59 -300 176 -30 61 -34 79 -37 168 -7 171 44 311 147 409 62 60 108 87 189
111 183 54 376 19 707 -130 154 -69 191 -76 221 -43 48 53 185 126 307 164
178 54 257 63 355 40z"/>
<path d="M2028 3450 c-90 -22 -167 -57 -176 -78 -13 -36 78 -74 228 -94 109
-14 154 -6 197 37 50 50 44 113 -14 143 -32 17 -147 13 -235 -8z m245 -31 c21
-26 21 -41 2 -80 -19 -37 -50 -49 -120 -49 -99 0 -255 43 -255 70 0 17 44 38
120 59 106 28 118 30 180 26 41 -3 59 -9 73 -26z"/>
<path d="M6099 3665 c-62 -20 -110 -70 -168 -175 -32 -59 -53 -86 -67 -88 -24
-3 -108 25 -272 93 -264 109 -423 121 -577 44 -188 -94 -190 -375 -3 -453 53
-23 140 -21 161 2 24 26 21 39 -13 79 -31 35 -39 78 -20 112 29 56 195 61 420
13 194 -42 250 -59 250 -78 0 -8 -15 -45 -34 -82 -80 -160 -138 -332 -181
-535 -17 -80 -31 -125 -43 -133 -52 -39 -275 -91 -339 -79 -18 3 -47 19 -63
35 -33 32 -29 40 35 60 80 25 187 84 234 129 68 64 93 119 99 211 3 67 1 79
-20 110 -13 19 -44 46 -68 60 -40 22 -56 25 -150 24 -159 -1 -235 -36 -372
-170 -105 -103 -185 -226 -238 -364 -24 -63 -59 -102 -88 -98 l-27 3 2 120 c1
104 7 141 42 275 22 85 56 201 75 257 20 56 36 111 36 122 0 38 -33 44 -138
26 -116 -21 -185 -48 -208 -83 -9 -14 -61 -160 -115 -325 -55 -165 -109 -318
-122 -340 -23 -42 -51 -66 -63 -54 -9 9 -6 110 5 159 5 22 5 36 0 32 -5 -3 -9
2 -9 10 0 9 3 16 8 16 4 0 7 26 8 59 1 32 8 89 17 127 9 38 26 110 37 159 12
50 33 129 47 177 33 112 29 118 -71 117 l-71 -1 53 -8 c29 -4 55 -10 58 -13 5
-5 5 -6 -61 -255 -58 -220 -75 -322 -78 -459 -2 -122 6 -143 54 -143 36 0 64
28 90 88 22 51 115 327 173 513 41 132 59 160 115 182 56 23 209 43 223 29 7
-7 1 -33 -21 -90 -69 -181 -129 -428 -138 -574 -7 -121 5 -148 68 -148 54 0
77 27 129 151 24 55 61 128 83 162 47 73 184 216 247 258 105 70 275 93 364
49 67 -32 81 -58 81 -150 0 -135 -62 -219 -220 -298 -33 -16 -78 -32 -100 -36
-65 -11 -75 -16 -75 -38 0 -11 15 -35 34 -54 33 -33 37 -34 111 -34 87 0 192
21 282 57 70 28 75 36 98 158 33 172 111 397 196 567 l39 78 -23 14 c-23 15
-86 34 -202 59 -309 68 -472 59 -514 -28 -17 -36 -2 -107 31 -142 27 -29 16
-43 -33 -43 -117 0 -213 101 -212 222 1 104 52 175 163 227 49 23 67 26 170
26 134 -1 180 -12 393 -99 142 -57 251 -91 266 -81 5 3 31 44 58 92 82 148
130 183 249 183 35 0 59 -6 73 -17 20 -17 20 -20 6 -47 -34 -65 -115 -255
-115 -270 0 -31 48 -38 225 -33 170 6 277 18 326 38 18 7 32 25 44 56 24 61
67 108 118 127 23 9 128 34 232 56 336 71 355 75 373 63 44 -27 18 -38 -218
-91 -164 -36 -239 -57 -248 -69 -30 -41 14 -37 354 38 104 22 134 21 134 -5 0
-17 -18 -23 -215 -66 -77 -17 -164 -36 -194 -43 -30 -7 -59 -20 -65 -29 -24
-39 -2 -37 321 34 144 31 177 31 171 2 -2 -13 -46 -27 -188 -60 -102 -24 -206
-47 -232 -50 -26 -4 -53 -13 -59 -20 -14 -17 -5 -44 16 -44 9 0 109 20 222 46
210 46 258 51 258 24 0 -11 -35 -24 -125 -46 -212 -54 -413 -94 -462 -94 -51
0 -116 21 -162 53 -27 19 -34 20 -115 8 -114 -16 -319 -30 -456 -31 l-111 0
-26 -62 c-98 -228 -151 -412 -168 -584 -12 -115 -5 -149 36 -164 61 -24 100
12 159 146 113 258 262 399 463 439 72 15 96 15 180 5 179 -22 186 -22 242 -6
61 18 120 21 120 6 0 -6 -11 -38 -25 -72 -63 -155 -125 -449 -110 -520 17 -77
115 -64 160 22 7 14 34 90 60 170 57 176 101 273 144 322 44 50 127 81 203 76
90 -7 93 -14 48 -113 -21 -46 -36 -86 -33 -89 3 -3 41 13 84 35 151 75 182 84
309 84 118 0 182 -12 253 -47 47 -23 47 -36 3 -176 -80 -247 -96 -344 -62
-381 23 -26 72 -27 103 -3 12 9 44 68 72 130 86 195 138 264 257 342 218 142
481 122 584 -45 l22 -35 96 0 c102 0 221 -23 302 -58 115 -50 211 -153 262
-280 18 -47 22 -76 23 -167 0 -106 -1 -113 -36 -185 -70 -145 -174 -244 -344
-325 -317 -152 -685 -180 -1530 -115 -143 11 -276 22 -295 25 -19 3 -163 14
-320 25 -157 10 -429 30 -605 42 -285 21 -390 23 -965 22 -974 0 -1384 -33
-2190 -173 -96 -17 -215 -38 -265 -46 -153 -26 -248 -45 -254 -51 -3 -3 -8
-61 -10 -129 l-3 -123 -51 -22 c-189 -82 -643 -222 -857 -266 -122 -25 -156
-27 -355 -28 -201 0 -233 2 -365 28 -80 15 -194 43 -253 63 -60 19 -111 32
-114 30 -14 -15 307 -102 452 -122 329 -47 574 -24 962 90 181 54 508 167 565
196 l38 19 0 114 c0 87 4 118 14 129 8 8 43 20 78 26 1091 196 1488 236 2423
248 527 6 673 2 1285 -38 343 -22 881 -62 1130 -85 220 -20 623 -34 790 -28
555 20 936 193 1081 490 89 183 51 383 -100 535 -108 108 -251 164 -452 176
l-101 6 -49 52 c-72 77 -147 108 -271 113 -84 4 -106 1 -175 -22 -43 -14 -101
-39 -128 -55 -115 -66 -217 -190 -278 -338 -47 -113 -65 -142 -92 -155 -33
-15 -55 4 -55 46 0 35 7 62 74 293 55 188 54 191 -30 230 -72 33 -168 46 -294
41 -92 -4 -117 -9 -195 -41 -49 -20 -91 -35 -92 -33 -2 1 7 25 19 53 11 28 18
58 15 67 -10 25 -51 36 -138 36 -95 0 -153 -23 -202 -81 -47 -54 -70 -105
-143 -316 -67 -192 -90 -233 -131 -233 -34 0 -38 22 -25 119 21 162 44 257 89
375 58 151 39 179 -98 144 -62 -17 -88 -19 -159 -12 -149 15 -307 9 -372 -14
-168 -61 -303 -210 -408 -455 -37 -87 -69 -120 -103 -108 -28 10 -32 54 -17
167 16 125 76 334 144 503 48 119 32 111 219 111 89 1 196 5 237 10 200 25
184 26 250 -9 109 -58 195 -52 554 37 197 49 223 62 200 100 -17 26 -52 26
-171 -2 -235 -54 -291 -66 -314 -65 -22 0 -23 1 -4 9 17 7 207 50 409 93 70
14 89 36 62 66 -26 28 -51 27 -237 -14 -168 -37 -258 -52 -248 -42 5 6 223 56
389 89 65 13 80 23 80 53 0 47 -31 47 -269 -4 -121 -26 -221 -44 -221 -40 0 4
10 9 23 12 430 93 467 104 467 142 0 22 -25 35 -65 35 -42 0 -474 -87 -569
-115 -71 -21 -119 -63 -147 -129 -26 -64 -38 -71 -155 -86 -110 -14 -363 -15
-377 -1 -12 12 6 61 75 209 23 48 37 90 33 100 -13 42 -136 63 -216 37z"/>
<path d="M3918 3203 c-9 -10 -21 -28 -27 -41 -17 -33 -131 -372 -179 -532 -22
-74 -51 -164 -64 -199 -25 -70 -61 -107 -92 -95 -18 7 -18 17 -12 138 7 150
17 225 47 349 29 120 28 121 -116 112 -372 -23 -545 -75 -689 -206 -158 -145
-229 -354 -187 -552 15 -68 80 -171 130 -204 106 -71 256 -52 384 48 l37 30
33 -25 c62 -47 126 -68 197 -64 82 5 143 34 220 105 l59 54 42 -46 c64 -69
109 -89 199 -90 62 0 85 5 131 27 31 16 72 44 93 64 l37 36 39 -36 c69 -62 94
-71 205 -71 125 0 167 18 273 119 68 65 75 69 85 51 19 -36 81 -88 132 -111
161 -74 396 -35 575 95 45 33 60 38 60 20 0 -6 14 -30 31 -55 66 -97 213 -129
329 -72 30 15 84 52 120 82 69 59 80 65 80 41 0 -26 103 -121 153 -140 95 -36
204 -6 297 81 45 42 70 55 70 35 0 -19 53 -72 91 -91 21 -11 64 -27 96 -35 93
-24 195 4 289 80 l40 33 47 -48 c79 -82 174 -101 226 -46 12 13 55 87 95 164
181 347 310 520 381 510 29 -4 22 -35 -35 -148 -140 -280 -174 -411 -131 -506
67 -147 337 -159 538 -24 l58 38 32 -46 c44 -61 127 -118 199 -137 331 -86
744 239 744 586 l0 69 53 0 c165 0 296 -86 344 -223 25 -75 23 -205 -6 -277
-70 -179 -264 -300 -571 -357 -115 -21 -487 -23 -725 -4 -425 34 -763 64 -970
86 -809 84 -1256 108 -2050 108 -713 0 -908 -10 -1435 -74 -777 -94 -1217
-196 -2165 -504 -192 -62 -411 -132 -485 -155 -264 -81 -354 -111 -367 -122
-17 -13 -17 -59 0 -80 21 -27 300 -115 467 -146 203 -39 282 -45 483 -39 210
7 327 26 567 93 234 66 631 207 675 240 17 13 21 30 25 124 3 60 10 114 15
119 6 6 62 20 125 31 263 47 459 81 520 90 558 86 820 112 1380 139 112 5 138
8 80 9 -334 6 -1024 -61 -1545 -149 -66 -11 -145 -24 -175 -29 -214 -33 -425
-71 -432 -78 -4 -4 -9 -61 -10 -127 l-3 -120 -85 -36 c-162 -69 -459 -167
-710 -234 -388 -104 -775 -83 -1211 64 -133 44 -154 54 -163 76 -11 30 13 53
71 70 32 8 99 28 148 44 50 16 137 43 195 60 185 56 221 68 455 145 553 181
1125 339 1400 385 33 6 101 17 150 25 290 50 853 120 1115 140 385 30 1483 25
2035 -9 324 -20 746 -57 1075 -95 227 -27 891 -77 1135 -86 240 -9 446 15 609
72 292 102 428 266 414 502 -9 148 -89 265 -216 312 -64 24 -181 40 -227 30
l-30 -6 3 -64 c11 -243 -201 -510 -461 -580 -189 -51 -365 10 -442 153 -11 20
-23 37 -28 37 -4 0 -31 -18 -60 -40 -179 -135 -427 -140 -513 -10 -25 37 -26
46 -21 117 5 86 33 163 138 383 66 137 73 182 30 188 -38 6 -69 -7 -111 -44
-90 -82 -194 -244 -330 -515 -38 -75 -76 -139 -85 -143 -9 -3 -34 -6 -55 -6
-43 0 -101 41 -139 98 -12 17 -26 32 -31 32 -5 0 -38 -23 -72 -50 -68 -55
-133 -80 -208 -80 -96 0 -191 54 -230 131 -11 21 -22 39 -24 39 -3 0 -31 -27
-63 -61 -32 -34 -75 -70 -97 -81 -121 -62 -259 -11 -326 120 -12 23 -24 42
-27 42 -3 0 -36 -27 -74 -60 -83 -71 -145 -109 -201 -122 -99 -22 -204 29
-248 120 -14 29 -30 52 -36 52 -6 0 -35 -17 -65 -39 -127 -90 -245 -131 -381
-131 -97 0 -181 24 -230 66 -34 28 -84 88 -91 107 -2 7 -42 -25 -90 -69 -107
-102 -168 -134 -252 -134 -90 0 -151 24 -208 83 l-48 49 -53 -50 c-76 -72
-127 -96 -206 -96 -94 0 -159 39 -215 127 -9 15 -21 27 -25 27 -3 0 -35 -28
-70 -61 -86 -82 -132 -110 -194 -116 -68 -7 -122 9 -195 58 l-60 40 -53 -42
c-115 -91 -214 -112 -313 -65 -60 27 -98 70 -134 146 -56 121 -35 330 46 464
104 171 276 274 519 310 127 19 354 32 354 20 0 -5 -11 -54 -25 -109 -31 -128
-48 -272 -44 -381 3 -71 7 -88 23 -100 52 -38 112 4 150 104 14 37 53 159 86
272 92 308 149 472 177 502 9 10 14 18 11 18 -3 0 -12 -8 -20 -17z"/>
<path d="M5174 2821 c-39 -24 -88 -101 -108 -170 -9 -30 -16 -56 -16 -58 0 -2
10 -3 21 -3 44 0 142 44 186 84 38 34 46 48 50 87 4 34 1 50 -12 62 -22 23
-82 22 -121 -2z m104 -13 c25 -25 10 -96 -27 -126 -28 -22 -85 -49 -118 -57
l-32 -6 13 43 c22 71 46 112 79 136 35 24 67 28 85 10z"/>
<path d="M6579 2810 c-81 -42 -142 -148 -166 -286 -22 -131 -7 -174 62 -174
58 0 98 51 155 195 17 44 49 115 71 157 21 43 39 84 39 92 0 38 -100 48 -161
16z m136 -20 c6 -9 -89 -233 -147 -350 -27 -53 -69 -81 -95 -64 -37 24 -15
199 38 305 24 48 67 99 93 109 30 12 104 12 111 0z"/>
<path d="M3105 2727 c-103 -49 -181 -169 -192 -295 -9 -111 29 -182 98 -182
51 0 86 42 115 138 36 122 79 251 95 289 11 28 11 35 -1 47 -27 27 -63 27
-115 3z m93 -30 c3 -15 -57 -219 -105 -355 -20 -56 -62 -81 -98 -58 -49 32
-45 119 12 256 3 8 5 21 4 27 -5 33 69 122 119 142 35 14 64 9 68 -12z"/>
<path d="M8765 2565 c-83 -22 -135 -110 -135 -228 0 -116 65 -160 183 -125
111 33 240 238 198 316 -20 38 -164 60 -246 37z m212 -40 c22 -15 25 -22 21
-59 -7 -61 -41 -126 -90 -172 -59 -57 -99 -76 -156 -72 -63 4 -74 26 -69 133
7 152 56 200 195 191 45 -3 83 -11 99 -21z"/>
<path d="M5858 1460 c18 -4 35 -10 38 -12 2 -3 5 -60 7 -127 2 -134 10 -151
67 -151 49 0 59 24 62 150 l3 115 38 3 37 3 0 -116 c0 -147 -11 -178 -76 -207
-75 -33 -176 -10 -202 47 -7 16 -12 80 -13 163 -1 111 -3 130 -11 102 -13 -45
-3 -231 14 -266 25 -52 61 -69 147 -69 69 0 81 3 114 28 46 35 57 74 57 208 0
116 -6 129 -55 129 -54 0 -65 -23 -65 -137 0 -122 -3 -133 -41 -133 -41 0 -49
24 -49 147 0 72 -4 113 -12 121 -7 7 -30 12 -52 11 l-41 -1 33 -8z"/>
<path d="M5416 1439 c-8 -12 -24 -45 -35 -73 -98 -254 -95 -243 -71 -256 46
-24 120 -3 120 34 0 11 47 25 86 26 6 0 18 -16 27 -36 17 -34 18 -35 70 -32
43 2 52 6 55 23 3 26 -100 283 -126 312 -28 32 -104 33 -126 2z m127 -56 c31
-69 97 -241 97 -253 0 -10 -56 -19 -68 -11 -5 3 -15 19 -23 35 -8 16 -17 28
-21 27 -5 0 -32 -1 -62 -1 -50 0 -54 -2 -66 -30 -11 -26 -17 -30 -52 -30 -39
0 -40 1 -35 28 3 15 29 87 57 160 l52 132 48 0 47 0 26 -57z"/>
<path d="M6337 1453 c-3 -5 21 -7 52 -5 89 5 172 -13 199 -43 35 -41 31 -104
-10 -144 l-31 -31 26 -54 c15 -30 27 -58 27 -61 0 -3 -19 -5 -42 -3 -41 3 -43
5 -64 57 -14 36 -29 57 -45 63 -38 14 -48 3 -51 -59 l-3 -58 -35 0 -35 0 -6
145 -5 145 0 -150 1 -150 55 0 55 0 3 58 c4 74 20 74 58 0 33 -65 72 -86 119
-65 l25 12 -25 56 -25 56 25 29 c13 16 27 45 31 64 13 69 -16 116 -83 134 -43
12 -209 15 -216 4z"/>
<path d="M4981 1439 c-46 -4 -88 -12 -92 -16 -5 -5 24 -5 64 -1 39 3 102 7
139 7 59 1 67 -1 73 -20 9 -28 -2 -37 -50 -41 l-40 -3 4 -136 3 -136 -33 -7
c-18 -3 -36 -3 -41 2 -4 4 -10 57 -14 117 -8 162 -6 157 -58 150 -41 -7 -44
-5 -54 22 -6 15 -11 21 -11 12 -2 -28 23 -48 64 -51 l40 -3 6 -117 c4 -65 9
-125 13 -133 6 -18 67 -20 98 -4 19 10 20 16 13 140 l-7 129 23 0 c65 1 88 25
70 74 -10 24 -15 26 -68 25 -32 -1 -96 -5 -142 -10z"/>
<path d="M6930 1431 c0 -6 12 -11 28 -11 15 0 32 -4 39 -8 13 -8 112 -303 106
-314 -2 -5 -20 -8 -39 -8 -31 0 -37 4 -50 35 -14 35 -14 35 -79 35 -59 0 -66
-2 -76 -24 -7 -15 -23 -26 -41 -30 -35 -7 -48 -1 -48 22 0 14 -2 15 -10 2 -15
-23 8 -40 57 -40 38 0 46 4 61 30 15 27 21 30 65 28 40 -1 50 -5 57 -23 11
-30 29 -41 76 -49 60 -9 69 6 45 80 -11 32 -31 98 -46 146 -14 48 -34 96 -43
107 -19 23 -102 41 -102 22z"/>
<path d="M7310 1391 c-5 -11 -17 -84 -25 -162 -17 -158 -15 -164 41 -175 51
-9 63 6 66 89 l3 72 34 -72 c18 -40 42 -80 52 -89 27 -25 111 -31 129 -9 9 10
18 71 27 168 12 140 11 153 -4 165 -20 14 -73 16 -73 2 0 -5 12 -10 27 -10
l26 0 -7 -146 c-4 -81 -11 -155 -17 -165 -5 -11 -21 -19 -34 -19 -53 0 -72 20
-122 126 -26 57 -51 104 -54 104 -4 0 -10 -45 -14 -100 l-7 -100 -33 0 c-19 0
-36 4 -40 9 -9 16 25 295 39 309 9 9 24 10 52 4 38 -8 40 -9 88 -119 27 -62
53 -110 58 -107 4 3 7 35 7 72 -2 56 -3 61 -8 27 l-6 -40 -28 71 c-38 97 -55
114 -117 114 -39 0 -52 -4 -60 -19z"/>
<path d="M4500 1382 c-36 -19 -70 -71 -70 -107 0 -29 37 -84 63 -95 14 -5 16
-9 7 -10 -8 -1 -4 -5 10 -9 15 -4 26 -15 28 -28 7 -49 122 -32 122 18 0 20
-52 39 -110 39 -107 0 -143 110 -57 174 40 29 165 30 196 2 26 -24 27 -42 1
-56 -15 -8 -27 -7 -51 5 -38 20 -88 16 -103 -8 -16 -26 9 -41 93 -56 91 -16
116 -41 109 -106 -3 -25 -13 -54 -22 -64 -22 -24 -89 -41 -159 -41 -45 0 -57
4 -80 28 -15 15 -27 34 -27 42 0 7 -3 10 -6 7 -12 -12 17 -64 43 -78 31 -16
138 -15 192 2 49 16 69 35 83 80 21 73 -21 123 -122 141 -62 11 -95 33 -71 48
8 4 28 3 45 -2 57 -18 71 -19 99 -9 34 13 35 40 1 72 -35 33 -161 40 -214 11z"/>
<path d="M7890 1355 c41 -7 101 -16 133 -20 56 -6 58 -8 55 -33 -3 -25 -7 -27
-55 -30 -32 -2 -53 -8 -54 -15 0 -7 -6 -64 -12 -127 -13 -123 -17 -130 -72
-116 -17 4 -25 15 -28 39 -4 26 -4 25 -3 -8 1 -37 3 -40 39 -48 28 -7 43 -5
61 6 21 14 24 25 30 124 4 60 11 115 16 122 5 9 17 11 33 7 40 -10 77 12 77
45 0 38 -17 45 -132 58 -131 15 -183 12 -88 -4z"/>
<path d="M3572 1281 c-23 -4 -47 -12 -53 -18 -8 -8 -6 -57 7 -180 18 -163 20
-168 43 -171 13 -2 39 -1 57 3 l34 6 0 59 c0 33 4 60 9 60 4 0 25 -25 45 -55
36 -54 38 -56 74 -50 73 13 78 24 38 90 -24 39 -24 40 -5 63 21 27 25 94 9
136 -17 44 -65 66 -145 65 -38 -1 -89 -5 -113 -8z m187 -15 c53 -28 69 -120
30 -170 l-21 -27 31 -50 c17 -28 31 -52 31 -54 0 -2 -14 -8 -31 -14 -38 -13
-47 -8 -86 55 -29 46 -49 59 -76 49 -12 -5 -14 -18 -10 -64 l6 -58 -34 -7
c-18 -3 -36 -3 -40 1 -4 5 -14 77 -23 161 -13 114 -14 157 -6 167 20 24 188
32 229 11z"/>
</g>
</svg>
